<svg xmlns="http://www.w3.org/2000/svg" width="300" height="300"><defs><clipPath id="a"><path d="M12 100h11v11H12zM12 111h11v11H12zM12 122h11v11H12zM12 155h11v11H12zM12 177h11v11H12zM23 122h11v11H23zM23 133h11v11H23zM23 144h11v11H23zM23 155h11v11H23zM23 166h11v11H23zM23 177h11v11H23zM23 188h11v11H23zM34 111h11v11H34zM34 155h11v11H34zM34 177h11v11H34zM45 122h11v11H45zM45 133h11v11H45zM45 166h11v11H45zM45 188h11v11H45zM56 100h11v11H56zM56 122h11v11H56zM56 144h11v11H56zM56 188h11v11H56zM67 100h11v11H67zM67 111h11v11H67zM67 122h11v11H67zM67 144h11v11H67zM67 177h11v11H67zM67 188h11v11H67zM78 100h11v11H78zM78 122h11v11H78zM78 144h11v11H78zM78 166h11v11H78zM78 188h11v11H78zM89 111h11v11H89zM89 122h11v11H89zM89 144h11v11H89zM89 166h11v11H89zM89 177h11v11H89zM89 188h11v11H89zM100 23h11v11h-11zM100 34h11v11h-11zM100 45h11v11h-11zM100 56h11v11h-11zM100 67h11v11h-11zM100 78h11v11h-11zM100 89h11v11h-11zM100 111h11v11h-11zM100 144h11v11h-11zM100 221h11v11h-11zM100 232h11v11h-11zM100 276h11v11h-11zM111 12h11v11h-11zM111 23h11v11h-11zM111 56h11v11h-11zM111 89h11v11h-11zM111 100h11v11h-11zM111 111h11v11h-11zM111 122h11v11h-11zM111 144h11v11h-11zM111 155h11v11h-11zM111 166h11v11h-11zM111 188h11v11h-11zM111 221h11v11h-11zM111 265h11v11h-11zM122 12h11v11h-11zM122 45h11v11h-11zM122 56h11v11h-11zM122 67h11v11h-11zM122 78h11v11h-11zM122 89h11v11h-11zM122 122h11v11h-11zM122 144h11v11h-11zM122 155h11v11h-11zM122 166h11v11h-11zM122 177h11v11h-11zM122 210h11v11h-11zM122 221h11v11h-11zM122 243h11v11h-11zM122 265h11v11h-11zM122 276h11v11h-11zM133 56h11v11h-11zM133 67h11v11h-11zM133 89h11v11h-11zM133 155h11v11h-11zM133 188h11v11h-11zM133 199h11v11h-11zM133 221h11v11h-11zM133 276h11v11h-11zM144 23h11v11h-11zM144 34h11v11h-11zM144 45h11v11h-11zM144 56h11v11h-11zM144 78h11v11h-11zM144 89h11v11h-11zM144 100h11v11h-11zM144 111h11v11h-11zM144 144h11v11h-11zM144 166h11v11h-11zM144 199h11v11h-11zM144 210h11v11h-11zM144 232h11v11h-11zM144 254h11v11h-11zM144 265h11v11h-11zM144 276h11v11h-11zM155 12h11v11h-11zM155 23h11v11h-11zM155 45h11v11h-11zM155 67h11v11h-11zM155 111h11v11h-11zM155 133h11v11h-11zM155 221h11v11h-11zM155 243h11v11h-11zM155 265h11v11h-11zM166 12h11v11h-11zM166 56h11v11h-11zM166 78h11v11h-11zM166 100h11v11h-11zM166 111h11v11h-11zM166 133h11v11h-11zM166 166h11v11h-11zM166 177h11v11h-11zM166 199h11v11h-11zM166 221h11v11h-11zM166 232h11v11h-11zM166 243h11v11h-11zM166 265h11v11h-11zM166 276h11v11h-11zM177 12h11v11h-11zM177 34h11v11h-11zM177 45h11v11h-11zM177 67h11v11h-11zM177 89h11v11h-11zM177 111h11v11h-11zM177 155h11v11h-11zM177 166h11v11h-11zM177 199h11v11h-11zM177 221h11v11h-11zM177 232h11v11h-11zM177 276h11v11h-11zM188 12h11v11h-11zM188 34h11v11h-11zM188 56h11v11h-11zM188 78h11v11h-11zM188 111h11v11h-11zM188 122h11v11h-11zM188 133h11v11h-11zM188 144h11v11h-11zM188 166h11v11h-11zM188 177h11v11h-11zM188 188h11v11h-11zM188 199h11v11h-11zM188 210h11v11h-11zM188 221h11v11h-11zM188 232h11v11h-11zM188 254h11v11h-11zM199 100h11v11h-11zM199 122h11v11h-11zM199 144h11v11h-11zM199 155h11v11h-11zM199 177h11v11h-11zM199 188h11v11h-11zM199 232h11v11h-11zM199 243h11v11h-11zM210 100h11v11h-11zM210 122h11v11h-11zM210 133h11v11h-11zM210 144h11v11h-11zM210 188h11v11h-11zM210 210h11v11h-11zM210 232h11v11h-11zM210 254h11v11h-11zM210 265h11v11h-11zM210 276h11v11h-11zM221 100h11v11h-11zM221 111h11v11h-11zM221 122h11v11h-11zM221 144h11v11h-11zM221 155h11v11h-11zM221 188h11v11h-11zM221 232h11v11h-11zM221 243h11v11h-11zM221 265h11v11h-11zM221 276h11v11h-11zM232 100h11v11h-11zM232 111h11v11h-11zM232 133h11v11h-11zM232 155h11v11h-11zM232 177h11v11h-11zM232 188h11v11h-11zM232 199h11v11h-11zM232 210h11v11h-11zM232 221h11v11h-11zM232 232h11v11h-11zM232 254h11v11h-11zM232 276h11v11h-11zM243 100h11v11h-11zM243 111h11v11h-11zM243 122h11v11h-11zM243 144h11v11h-11zM243 188h11v11h-11zM243 199h11v11h-11zM243 210h11v11h-11zM243 232h11v11h-11zM243 243h11v11h-11zM243 254h11v11h-11zM243 265h11v11h-11zM243 276h11v11h-11zM254 100h11v11h-11zM254 166h11v11h-11zM254 188h11v11h-11zM254 243h11v11h-11zM254 254h11v11h-11zM254 276h11v11h-11zM265 100h11v11h-11zM265 111h11v11h-11zM265 122h11v11h-11zM265 144h11v11h-11zM265 155h11v11h-11zM265 177h11v11h-11zM265 188h11v11h-11zM265 199h11v11h-11zM265 221h11v11h-11zM265 232h11v11h-11zM265 243h11v11h-11zM265 276h11v11h-11zM276 111h11v11h-11zM276 122h11v11h-11zM276 144h11v11h-11zM276 199h11v11h-11zM276 210h11v11h-11zM276 221h11v11h-11zM276 232h11v11h-11zM276 243h11v11h-11zM276 254h11v11h-11zM276 265h11v11h-11zM276 276h11v11h-11zM12 12h11v11H12zM12 23h11v11H12zM12 34h11v11H12zM12 45h11v11H12zM12 56h11v11H12zM12 67h11v11H12zM12 78h11v11H12zM23 12h11v11H23zM23 78h11v11H23zM34 12h11v11H34zM34 78h11v11H34zM45 12h11v11H45zM45 78h11v11H45zM56 12h11v11H56zM56 78h11v11H56zM67 12h11v11H67zM67 78h11v11H67zM78 12h11v11H78zM78 23h11v11H78zM78 34h11v11H78zM78 45h11v11H78zM78 56h11v11H78zM78 67h11v11H78zM78 78h11v11H78zM34 34h11v11H34zM34 45h11v11H34zM34 56h11v11H34zM45 34h11v11H45zM45 45h11v11H45zM45 56h11v11H45zM56 34h11v11H56zM56 45h11v11H56zM56 56h11v11H56zM210 12h11v11h-11zM210 23h11v11h-11zM210 34h11v11h-11zM210 45h11v11h-11zM210 56h11v11h-11zM210 67h11v11h-11zM210 78h11v11h-11zM221 12h11v11h-11zM221 78h11v11h-11zM232 12h11v11h-11zM232 78h11v11h-11zM243 12h11v11h-11zM243 78h11v11h-11zM254 12h11v11h-11zM254 78h11v11h-11zM265 12h11v11h-11zM265 78h11v11h-11zM276 12h11v11h-11zM276 23h11v11h-11zM276 34h11v11h-11zM276 45h11v11h-11zM276 56h11v11h-11zM276 67h11v11h-11zM276 78h11v11h-11zM232 34h11v11h-11zM232 45h11v11h-11zM232 56h11v11h-11zM243 34h11v11h-11zM243 45h11v11h-11zM243 56h11v11h-11zM254 34h11v11h-11zM254 45h11v11h-11zM254 56h11v11h-11zM12 210h11v11H12zM12 221h11v11H12zM12 232h11v11H12zM12 243h11v11H12zM12 254h11v11H12zM12 265h11v11H12zM12 276h11v11H12zM23 210h11v11H23zM23 276h11v11H23zM34 210h11v11H34zM34 276h11v11H34zM45 210h11v11H45zM45 276h11v11H45zM56 210h11v11H56zM56 276h11v11H56zM67 210h11v11H67zM67 276h11v11H67zM78 210h11v11H78zM78 221h11v11H78zM78 232h11v11H78zM78 243h11v11H78zM78 254h11v11H78zM78 265h11v11H78zM78 276h11v11H78zM34 232h11v11H34zM34 243h11v11H34zM34 254h11v11H34zM45 232h11v11H45zM45 243h11v11H45zM45 254h11v11H45zM56 232h11v11H56zM56 243h11v11H56zM56 254h11v11H56z"/></clipPath></defs><path clip-path="url('#clip-path-background-color')" fill="#FFF" d="M0 0h300v300H0z"/><path clip-path="url('#a')" d="M0 0h300v300H0z"/></svg>